<svg width="1200" height="900" viewBox="0 0 1200 900" fill="none" xmlns="http://www.w3.org/2000/svg">
  <defs>
    <linearGradient id="g1" x1="95" y1="50" x2="1080" y2="840" gradientUnits="userSpaceOnUse">
      <stop stop-color="#FFB13E" stop-opacity="0.95"/>
      <stop offset="0.46" stop-color="#5B84FF" stop-opacity="0.82"/>
      <stop offset="1" stop-color="#C163FF" stop-opacity="0.7"/>
    </linearGradient>
    <radialGradient id="r1" cx="0" cy="0" r="1" gradientUnits="userSpaceOnUse" gradientTransform="translate(870 240) rotate(132) scale(470 390)">
      <stop stop-color="#FFFFFF" stop-opacity="0.65"/>
      <stop offset="1" stop-color="#FFFFFF" stop-opacity="0"/>
    </radialGradient>
    <radialGradient id="r2" cx="0" cy="0" r="1" gradientUnits="userSpaceOnUse" gradientTransform="translate(330 610) rotate(-38) scale(520 430)">
      <stop stop-color="#FFFFFF" stop-opacity="0.48"/>
      <stop offset="1" stop-color="#FFFFFF" stop-opacity="0"/>
    </radialGradient>
    <filter id="blur" x="-120" y="-120" width="1440" height="1140" filterUnits="userSpaceOnUse" color-interpolation-filters="sRGB">
      <feGaussianBlur stdDeviation="26"/>
    </filter>
    <filter id="softShadow" x="-60" y="-60" width="1320" height="1020" filterUnits="userSpaceOnUse" color-interpolation-filters="sRGB">
      <feDropShadow dx="0" dy="24" stdDeviation="26" flood-color="#1D2542" flood-opacity="0.18"/>
    </filter>
  </defs>

  <rect x="0" y="0" width="1200" height="900" rx="54" fill="url(#g1)"/>
  <g filter="url(#blur)">
    <path d="M-20 650C180 520 260 380 460 360C640 340 700 540 860 560C1030 585 1100 440 1260 330V980H-20V650Z" fill="#FFFFFF" fill-opacity="0.16"/>
    <path d="M-30 240C140 100 360 90 500 170C655 258 690 420 845 460C1025 506 1100 330 1260 240V-80H-30V240Z" fill="#FFFFFF" fill-opacity="0.14"/>
  </g>

  <g filter="url(#softShadow)">
    <rect x="160" y="190" width="420" height="520" rx="34" fill="rgba(255,255,255,0.78)"/>
    <rect x="198" y="230" width="344" height="44" rx="18" fill="rgba(255,255,255,0.62)"/>
    <rect x="198" y="294" width="296" height="22" rx="11" fill="rgba(255,255,255,0.46)"/>
    <rect x="198" y="330" width="330" height="22" rx="11" fill="rgba(255,255,255,0.42)"/>
    <rect x="198" y="386" width="126" height="110" rx="22" fill="rgba(255,255,255,0.50)"/>
    <rect x="340" y="386" width="202" height="110" rx="22" fill="rgba(255,255,255,0.46)"/>
    <rect x="198" y="516" width="344" height="18" rx="9" fill="rgba(255,255,255,0.42)"/>
    <rect x="198" y="548" width="308" height="18" rx="9" fill="rgba(255,255,255,0.38)"/>
    <rect x="198" y="590" width="240" height="48" rx="24" fill="rgba(255,255,255,0.62)"/>
  </g>

  <circle cx="898" cy="270" r="250" fill="url(#r1)"/>
  <circle cx="320" cy="640" r="280" fill="url(#r2)"/>
</svg>

